<svg xmlns="http://www.w3.org/2000/svg" viewBox="0 0 600 600" width="600" height="600"><defs>
<linearGradient id="b31" x1="0" y1="0" x2="0" y2="1"><stop offset="0" stop-color="#2b2725"/><stop offset="1" stop-color="#151515"/></linearGradient>
<radialGradient id="g32" cx="50%" cy="108%" r="85%"><stop offset="0" stop-color="#F57C00" stop-opacity=".62"/><stop offset=".5" stop-color="#D32F2F" stop-opacity=".2"/><stop offset="1" stop-color="#F57C00" stop-opacity="0"/></radialGradient>
<pattern id="p33" width="26" height="26" patternUnits="userSpaceOnUse" patternTransform="rotate(45)"><line x1="0" y1="0" x2="0" y2="26" stroke="#fff" stroke-opacity=".04" stroke-width="2"/></pattern>
</defs>
<rect width="600" height="600" fill="url(#b31)"/><rect width="600" height="600" fill="url(#p33)"/><rect width="600" height="600" fill="url(#g32)"/><rect x="58" y="184" width="500" height="320" rx="34" fill="#000" opacity=".4"/><rect x="50" y="170" width="500" height="320" rx="34" fill="#4f3323"/><rect x="59" y="179" width="482" height="302" rx="27" fill="#7d5236"/><path d="M74,196 C200,195 375,197 526,196" stroke="#3d2517" stroke-opacity=".35" stroke-width="3" fill="none" stroke-linecap="round"/><path d="M74,241 C200,247 375,240 526,241" stroke="#3d2517" stroke-opacity=".35" stroke-width="3" fill="none" stroke-linecap="round"/><path d="M74,285 C200,285 375,287 526,285" stroke="#3d2517" stroke-opacity=".35" stroke-width="3" fill="none" stroke-linecap="round"/><path d="M74,330 C200,326 375,330 526,330" stroke="#3d2517" stroke-opacity=".35" stroke-width="3" fill="none" stroke-linecap="round"/><path d="M74,375 C200,376 375,379 526,375" stroke="#3d2517" stroke-opacity=".35" stroke-width="3" fill="none" stroke-linecap="round"/><path d="M74,419 C200,414 375,417 526,419" stroke="#3d2517" stroke-opacity=".35" stroke-width="3" fill="none" stroke-linecap="round"/><path d="M74,464 C200,458 375,468 526,464" stroke="#3d2517" stroke-opacity=".35" stroke-width="3" fill="none" stroke-linecap="round"/><g transform="translate(300,270) rotate(-4) scale(1.15)">
<rect x="-150" y="-22" width="300" height="104" rx="52" fill="#b9793a"/>
<line x1="-166" y1="-6" x2="166" y2="-6" stroke="#9d3a1f" stroke-width="58" stroke-linecap="round"/><line x1="-166" y1="-6" x2="166" y2="-6" stroke="#cf6636" stroke-width="50" stroke-linecap="round"/><line x1="-166.0" y1="-14.5" x2="166.0" y2="-14.5" stroke="#f0a071" stroke-width="9" stroke-linecap="round" opacity=".5"/><line x1="-141.8" y1="-19.5" x2="-129.8" y2="7.5" stroke="#3d130b" stroke-width="5" stroke-linecap="round" opacity=".45"/><line x1="-111.6" y1="-19.5" x2="-99.6" y2="7.5" stroke="#3d130b" stroke-width="5" stroke-linecap="round" opacity=".45"/><line x1="-81.5" y1="-19.5" x2="-69.5" y2="7.5" stroke="#3d130b" stroke-width="5" stroke-linecap="round" opacity=".45"/><line x1="-51.3" y1="-19.5" x2="-39.3" y2="7.5" stroke="#3d130b" stroke-width="5" stroke-linecap="round" opacity=".45"/><line x1="-21.1" y1="-19.5" x2="-9.1" y2="7.5" stroke="#3d130b" stroke-width="5" stroke-linecap="round" opacity=".45"/><line x1="9.1" y1="-19.5" x2="21.1" y2="7.5" stroke="#3d130b" stroke-width="5" stroke-linecap="round" opacity=".45"/><line x1="39.3" y1="-19.5" x2="51.3" y2="7.5" stroke="#3d130b" stroke-width="5" stroke-linecap="round" opacity=".45"/><line x1="69.5" y1="-19.5" x2="81.5" y2="7.5" stroke="#3d130b" stroke-width="5" stroke-linecap="round" opacity=".45"/><line x1="99.6" y1="-19.5" x2="111.6" y2="7.5" stroke="#3d130b" stroke-width="5" stroke-linecap="round" opacity=".45"/><line x1="129.8" y1="-19.5" x2="141.8" y2="7.5" stroke="#3d130b" stroke-width="5" stroke-linecap="round" opacity=".45"/>
<path d="M-150,12 Q-150,82 -98,82 L98,82 Q150,82 150,12 Q0,44 -150,12 Z" fill="#e2ab68"/>
<path d="M-128,40 Q0,64 128,40" stroke="#f3cf95" stroke-width="8" stroke-linecap="round" fill="none" opacity=".7"/></g><g transform="translate(300,400) rotate(3) scale(1.15)">
<rect x="-150" y="-22" width="300" height="104" rx="52" fill="#b9793a"/>
<line x1="-166" y1="-6" x2="166" y2="-6" stroke="#9d3a1f" stroke-width="58" stroke-linecap="round"/><line x1="-166" y1="-6" x2="166" y2="-6" stroke="#cf6636" stroke-width="50" stroke-linecap="round"/><line x1="-166.0" y1="-14.5" x2="166.0" y2="-14.5" stroke="#f0a071" stroke-width="9" stroke-linecap="round" opacity=".5"/><line x1="-141.8" y1="-19.5" x2="-129.8" y2="7.5" stroke="#3d130b" stroke-width="5" stroke-linecap="round" opacity=".45"/><line x1="-111.6" y1="-19.5" x2="-99.6" y2="7.5" stroke="#3d130b" stroke-width="5" stroke-linecap="round" opacity=".45"/><line x1="-81.5" y1="-19.5" x2="-69.5" y2="7.5" stroke="#3d130b" stroke-width="5" stroke-linecap="round" opacity=".45"/><line x1="-51.3" y1="-19.5" x2="-39.3" y2="7.5" stroke="#3d130b" stroke-width="5" stroke-linecap="round" opacity=".45"/><line x1="-21.1" y1="-19.5" x2="-9.1" y2="7.5" stroke="#3d130b" stroke-width="5" stroke-linecap="round" opacity=".45"/><line x1="9.1" y1="-19.5" x2="21.1" y2="7.5" stroke="#3d130b" stroke-width="5" stroke-linecap="round" opacity=".45"/><line x1="39.3" y1="-19.5" x2="51.3" y2="7.5" stroke="#3d130b" stroke-width="5" stroke-linecap="round" opacity=".45"/><line x1="69.5" y1="-19.5" x2="81.5" y2="7.5" stroke="#3d130b" stroke-width="5" stroke-linecap="round" opacity=".45"/><line x1="99.6" y1="-19.5" x2="111.6" y2="7.5" stroke="#3d130b" stroke-width="5" stroke-linecap="round" opacity=".45"/><line x1="129.8" y1="-19.5" x2="141.8" y2="7.5" stroke="#3d130b" stroke-width="5" stroke-linecap="round" opacity=".45"/>
<path d="M-150,12 Q-150,82 -98,82 L98,82 Q150,82 150,12 Q0,44 -150,12 Z" fill="#e2ab68"/>
<path d="M-128,40 Q0,64 128,40" stroke="#f3cf95" stroke-width="8" stroke-linecap="round" fill="none" opacity=".7"/></g></svg>