<svg xmlns="http://www.w3.org/2000/svg" viewBox="0 0 600 600" width="600" height="600"><defs>
<linearGradient id="b37" x1="0" y1="0" x2="0" y2="1"><stop offset="0" stop-color="#2b2725"/><stop offset="1" stop-color="#151515"/></linearGradient>
<radialGradient id="g38" cx="50%" cy="108%" r="85%"><stop offset="0" stop-color="#3f9a3a" stop-opacity=".62"/><stop offset=".5" stop-color="#D32F2F" stop-opacity=".2"/><stop offset="1" stop-color="#3f9a3a" stop-opacity="0"/></radialGradient>
<pattern id="p39" width="26" height="26" patternUnits="userSpaceOnUse" patternTransform="rotate(45)"><line x1="0" y1="0" x2="0" y2="26" stroke="#fff" stroke-opacity=".04" stroke-width="2"/></pattern>
</defs>
<rect width="600" height="600" fill="url(#b37)"/><rect width="600" height="600" fill="url(#p39)"/><rect width="600" height="600" fill="url(#g38)"/><g transform="translate(300 330) scale(1.55) translate(-300 -330)"><path d="M170,360 L430,360 C430,479 373,500 300,500 C227,500 170,479 170,360 Z" fill="#efe9dd"/><ellipse cx="300" cy="360" rx="130" ry="31" fill="#cfc6b3"/><ellipse cx="300" cy="356" rx="120" ry="26" fill="#3a2a20"/><circle cx="251" cy="278" r="31" fill="#d43a2c"/><circle cx="244" cy="270" r="8" fill="#ee6a55" opacity=".7"/><circle cx="364" cy="288" r="32" fill="#d43a2c"/><circle cx="357" cy="280" r="8" fill="#ee6a55" opacity=".7"/><circle cx="342" cy="301" r="32" fill="#d43a2c"/><circle cx="335" cy="293" r="8" fill="#ee6a55" opacity=".7"/><circle cx="251" cy="270" r="27" fill="#d43a2c"/><circle cx="244" cy="262" r="8" fill="#ee6a55" opacity=".7"/><circle cx="278" cy="300" r="29" fill="#d43a2c"/><circle cx="271" cy="292" r="8" fill="#ee6a55" opacity=".7"/><circle cx="299" cy="298" r="27" fill="#d43a2c"/><circle cx="292" cy="290" r="8" fill="#ee6a55" opacity=".7"/><circle cx="284" cy="333" r="31" fill="#d43a2c"/><circle cx="277" cy="325" r="8" fill="#ee6a55" opacity=".7"/><circle cx="339" cy="324" r="27" fill="#d43a2c"/><circle cx="332" cy="316" r="8" fill="#ee6a55" opacity=".7"/><circle cx="291" cy="295" r="26" fill="#d43a2c"/><circle cx="284" cy="287" r="8" fill="#ee6a55" opacity=".7"/><circle cx="313" cy="292" r="27" fill="#d43a2c"/><circle cx="306" cy="284" r="8" fill="#ee6a55" opacity=".7"/><circle cx="380" cy="294" r="28" fill="#d43a2c"/><circle cx="373" cy="286" r="8" fill="#ee6a55" opacity=".7"/><circle cx="348" cy="293" r="30" fill="#d43a2c"/><circle cx="341" cy="285" r="8" fill="#ee6a55" opacity=".7"/><circle cx="324" cy="333" r="30" fill="#d43a2c"/><circle cx="317" cy="325" r="8" fill="#ee6a55" opacity=".7"/><path d="M363,295 q24,-26 48,0" stroke="#efe6f0" stroke-width="9" stroke-linecap="round" fill="none" opacity=".92"/><path d="M265,316 q24,-26 48,0" stroke="#efe6f0" stroke-width="9" stroke-linecap="round" fill="none" opacity=".92"/><path d="M283,307 q24,-26 48,0" stroke="#efe6f0" stroke-width="9" stroke-linecap="round" fill="none" opacity=".92"/><path d="M304,307 q24,-26 48,0" stroke="#efe6f0" stroke-width="9" stroke-linecap="round" fill="none" opacity=".92"/><path d="M276,302 q24,-26 48,0" stroke="#efe6f0" stroke-width="9" stroke-linecap="round" fill="none" opacity=".92"/><path d="M261,290 q24,-26 48,0" stroke="#efe6f0" stroke-width="9" stroke-linecap="round" fill="none" opacity=".92"/><path d="M246,332 q24,-26 48,0" stroke="#efe6f0" stroke-width="9" stroke-linecap="round" fill="none" opacity=".92"/><path d="M245,304 q24,-26 48,0" stroke="#efe6f0" stroke-width="9" stroke-linecap="round" fill="none" opacity=".92"/><path d="M206,305 q24,-26 48,0" stroke="#efe6f0" stroke-width="9" stroke-linecap="round" fill="none" opacity=".92"/><ellipse cx="396" cy="319" rx="12" ry="7" fill="#3f9a3a" transform="rotate(4 396 319)"/><ellipse cx="300" cy="267" rx="12" ry="7" fill="#3f9a3a" transform="rotate(3 300 267)"/><ellipse cx="309" cy="288" rx="12" ry="7" fill="#3f9a3a" transform="rotate(104 309 288)"/><ellipse cx="305" cy="304" rx="12" ry="7" fill="#3f9a3a" transform="rotate(33 305 304)"/><ellipse cx="320" cy="302" rx="12" ry="7" fill="#3f9a3a" transform="rotate(136 320 302)"/><ellipse cx="389" cy="286" rx="12" ry="7" fill="#3f9a3a" transform="rotate(62 389 286)"/><ellipse cx="266" cy="322" rx="12" ry="7" fill="#3f9a3a" transform="rotate(140 266 322)"/><ellipse cx="361" cy="325" rx="12" ry="7" fill="#3f9a3a" transform="rotate(144 361 325)"/><ellipse cx="302" cy="303" rx="12" ry="7" fill="#3f9a3a" transform="rotate(170 302 303)"/><ellipse cx="330" cy="312" rx="12" ry="7" fill="#3f9a3a" transform="rotate(110 330 312)"/></g></svg>