<svg xmlns="http://www.w3.org/2000/svg" viewBox="0 0 1300 500" width="1300" height="500"><defs>
<linearGradient id="b83" x1="0" y1="0" x2="0" y2="1"><stop offset="0" stop-color="#2b2725"/><stop offset="1" stop-color="#151515"/></linearGradient>
<radialGradient id="g84" cx="50%" cy="108%" r="85%"><stop offset="0" stop-color="#F57C00" stop-opacity=".62"/><stop offset=".5" stop-color="#D32F2F" stop-opacity=".2"/><stop offset="1" stop-color="#F57C00" stop-opacity="0"/></radialGradient>
<pattern id="p85" width="26" height="26" patternUnits="userSpaceOnUse" patternTransform="rotate(45)"><line x1="0" y1="0" x2="0" y2="26" stroke="#fff" stroke-opacity=".04" stroke-width="2"/></pattern>
</defs>
<rect width="1300" height="500" fill="url(#b83)"/><rect width="1300" height="500" fill="url(#p85)"/><rect width="1300" height="500" fill="url(#g84)"/><rect x="0" y="160" width="127" height="280" fill="#1d1a19"/><rect x="54" y="174" width="9" height="12" fill="#F57C00" opacity=".75"/><rect x="76" y="174" width="9" height="12" fill="#F57C00" opacity=".75"/><rect x="98" y="174" width="9" height="12" fill="#F57C00" opacity=".75"/><rect x="32" y="200" width="9" height="12" fill="#F57C00" opacity=".75"/><rect x="54" y="200" width="9" height="12" fill="#F57C00" opacity=".75"/><rect x="76" y="200" width="9" height="12" fill="#F57C00" opacity=".75"/><rect x="54" y="226" width="9" height="12" fill="#F57C00" opacity=".75"/><rect x="76" y="226" width="9" height="12" fill="#F57C00" opacity=".75"/><rect x="98" y="226" width="9" height="12" fill="#F57C00" opacity=".75"/><rect x="76" y="278" width="9" height="12" fill="#F57C00" opacity=".75"/><rect x="10" y="304" width="9" height="12" fill="#F57C00" opacity=".75"/><rect x="32" y="330" width="9" height="12" fill="#F57C00" opacity=".75"/><rect x="54" y="330" width="9" height="12" fill="#F57C00" opacity=".75"/><rect x="98" y="330" width="9" height="12" fill="#F57C00" opacity=".75"/><rect x="10" y="356" width="9" height="12" fill="#F57C00" opacity=".75"/><rect x="32" y="356" width="9" height="12" fill="#F57C00" opacity=".75"/><rect x="54" y="356" width="9" height="12" fill="#F57C00" opacity=".75"/><rect x="76" y="356" width="9" height="12" fill="#F57C00" opacity=".75"/><rect x="98" y="356" width="9" height="12" fill="#F57C00" opacity=".75"/><rect x="32" y="382" width="9" height="12" fill="#F57C00" opacity=".75"/><rect x="54" y="382" width="9" height="12" fill="#F57C00" opacity=".75"/><rect x="98" y="382" width="9" height="12" fill="#F57C00" opacity=".75"/><rect x="10" y="408" width="9" height="12" fill="#F57C00" opacity=".75"/><rect x="98" y="408" width="9" height="12" fill="#F57C00" opacity=".75"/><rect x="133" y="184" width="95" height="256" fill="#1d1a19"/><rect x="164" y="197" width="9" height="12" fill="#F57C00" opacity=".75"/><rect x="186" y="197" width="9" height="12" fill="#F57C00" opacity=".75"/><rect x="142" y="223" width="9" height="12" fill="#F57C00" opacity=".75"/><rect x="164" y="223" width="9" height="12" fill="#F57C00" opacity=".75"/><rect x="186" y="223" width="9" height="12" fill="#F57C00" opacity=".75"/><rect x="186" y="249" width="9" height="12" fill="#F57C00" opacity=".75"/><rect x="142" y="275" width="9" height="12" fill="#F57C00" opacity=".75"/><rect x="186" y="275" width="9" height="12" fill="#F57C00" opacity=".75"/><rect x="142" y="301" width="9" height="12" fill="#F57C00" opacity=".75"/><rect x="164" y="301" width="9" height="12" fill="#F57C00" opacity=".75"/><rect x="142" y="327" width="9" height="12" fill="#F57C00" opacity=".75"/><rect x="164" y="327" width="9" height="12" fill="#F57C00" opacity=".75"/><rect x="164" y="353" width="9" height="12" fill="#F57C00" opacity=".75"/><rect x="186" y="353" width="9" height="12" fill="#F57C00" opacity=".75"/><rect x="142" y="379" width="9" height="12" fill="#F57C00" opacity=".75"/><rect x="164" y="379" width="9" height="12" fill="#F57C00" opacity=".75"/><rect x="186" y="379" width="9" height="12" fill="#F57C00" opacity=".75"/><rect x="142" y="405" width="9" height="12" fill="#F57C00" opacity=".75"/><rect x="186" y="405" width="9" height="12" fill="#F57C00" opacity=".75"/><rect x="234" y="175" width="76" height="265" fill="#1d1a19"/><rect x="287" y="188" width="9" height="12" fill="#F57C00" opacity=".75"/><rect x="287" y="214" width="9" height="12" fill="#F57C00" opacity=".75"/><rect x="265" y="240" width="9" height="12" fill="#F57C00" opacity=".75"/><rect x="287" y="266" width="9" height="12" fill="#F57C00" opacity=".75"/><rect x="265" y="292" width="9" height="12" fill="#F57C00" opacity=".75"/><rect x="243" y="318" width="9" height="12" fill="#F57C00" opacity=".75"/><rect x="243" y="344" width="9" height="12" fill="#F57C00" opacity=".75"/><rect x="243" y="370" width="9" height="12" fill="#F57C00" opacity=".75"/><rect x="243" y="396" width="9" height="12" fill="#F57C00" opacity=".75"/><rect x="265" y="422" width="9" height="12" fill="#F57C00" opacity=".75"/><rect x="287" y="422" width="9" height="12" fill="#F57C00" opacity=".75"/><rect x="316" y="283" width="68" height="157" fill="#1d1a19"/><rect x="325" y="322" width="9" height="12" fill="#F57C00" opacity=".75"/><rect x="347" y="322" width="9" height="12" fill="#F57C00" opacity=".75"/><rect x="325" y="348" width="9" height="12" fill="#F57C00" opacity=".75"/><rect x="347" y="348" width="9" height="12" fill="#F57C00" opacity=".75"/><rect x="325" y="374" width="9" height="12" fill="#F57C00" opacity=".75"/><rect x="347" y="374" width="9" height="12" fill="#F57C00" opacity=".75"/><rect x="325" y="426" width="9" height="12" fill="#F57C00" opacity=".75"/><rect x="390" y="260" width="67" height="180" fill="#1d1a19"/><rect x="399" y="274" width="9" height="12" fill="#F57C00" opacity=".75"/><rect x="399" y="300" width="9" height="12" fill="#F57C00" opacity=".75"/><rect x="399" y="352" width="9" height="12" fill="#F57C00" opacity=".75"/><rect x="399" y="378" width="9" height="12" fill="#F57C00" opacity=".75"/><rect x="421" y="404" width="9" height="12" fill="#F57C00" opacity=".75"/><rect x="463" y="339" width="70" height="101" fill="#1d1a19"/><rect x="472" y="378" width="9" height="12" fill="#F57C00" opacity=".75"/><rect x="516" y="378" width="9" height="12" fill="#F57C00" opacity=".75"/><rect x="472" y="404" width="9" height="12" fill="#F57C00" opacity=".75"/><rect x="494" y="404" width="9" height="12" fill="#F57C00" opacity=".75"/><rect x="539" y="300" width="91" height="140" fill="#1d1a19"/><rect x="548" y="313" width="9" height="12" fill="#F57C00" opacity=".75"/><rect x="570" y="313" width="9" height="12" fill="#F57C00" opacity=".75"/><rect x="592" y="313" width="9" height="12" fill="#F57C00" opacity=".75"/><rect x="614" y="313" width="9" height="12" fill="#F57C00" opacity=".75"/><rect x="614" y="365" width="9" height="12" fill="#F57C00" opacity=".75"/><rect x="636" y="308" width="105" height="132" fill="#1d1a19"/><rect x="645" y="321" width="9" height="12" fill="#F57C00" opacity=".75"/><rect x="667" y="321" width="9" height="12" fill="#F57C00" opacity=".75"/><rect x="689" y="321" width="9" height="12" fill="#F57C00" opacity=".75"/><rect x="667" y="347" width="9" height="12" fill="#F57C00" opacity=".75"/><rect x="711" y="373" width="9" height="12" fill="#F57C00" opacity=".75"/><rect x="689" y="399" width="9" height="12" fill="#F57C00" opacity=".75"/><rect x="711" y="399" width="9" height="12" fill="#F57C00" opacity=".75"/><rect x="667" y="425" width="9" height="12" fill="#F57C00" opacity=".75"/><rect x="747" y="330" width="108" height="110" fill="#1d1a19"/><rect x="778" y="343" width="9" height="12" fill="#F57C00" opacity=".75"/><rect x="800" y="343" width="9" height="12" fill="#F57C00" opacity=".75"/><rect x="756" y="395" width="9" height="12" fill="#F57C00" opacity=".75"/><rect x="756" y="421" width="9" height="12" fill="#F57C00" opacity=".75"/><rect x="800" y="421" width="9" height="12" fill="#F57C00" opacity=".75"/><rect x="861" y="272" width="100" height="168" fill="#1d1a19"/><rect x="892" y="285" width="9" height="12" fill="#F57C00" opacity=".75"/><rect x="914" y="311" width="9" height="12" fill="#F57C00" opacity=".75"/><rect x="936" y="311" width="9" height="12" fill="#F57C00" opacity=".75"/><rect x="870" y="337" width="9" height="12" fill="#F57C00" opacity=".75"/><rect x="892" y="337" width="9" height="12" fill="#F57C00" opacity=".75"/><rect x="936" y="337" width="9" height="12" fill="#F57C00" opacity=".75"/><rect x="870" y="363" width="9" height="12" fill="#F57C00" opacity=".75"/><rect x="892" y="363" width="9" height="12" fill="#F57C00" opacity=".75"/><rect x="892" y="389" width="9" height="12" fill="#F57C00" opacity=".75"/><rect x="892" y="415" width="9" height="12" fill="#F57C00" opacity=".75"/><rect x="914" y="415" width="9" height="12" fill="#F57C00" opacity=".75"/><rect x="936" y="415" width="9" height="12" fill="#F57C00" opacity=".75"/><rect x="967" y="291" width="119" height="149" fill="#1d1a19"/><rect x="1064" y="304" width="9" height="12" fill="#F57C00" opacity=".75"/><rect x="976" y="330" width="9" height="12" fill="#F57C00" opacity=".75"/><rect x="998" y="330" width="9" height="12" fill="#F57C00" opacity=".75"/><rect x="1020" y="330" width="9" height="12" fill="#F57C00" opacity=".75"/><rect x="976" y="356" width="9" height="12" fill="#F57C00" opacity=".75"/><rect x="976" y="382" width="9" height="12" fill="#F57C00" opacity=".75"/><rect x="998" y="382" width="9" height="12" fill="#F57C00" opacity=".75"/><rect x="1020" y="382" width="9" height="12" fill="#F57C00" opacity=".75"/><rect x="998" y="408" width="9" height="12" fill="#F57C00" opacity=".75"/><rect x="1020" y="408" width="9" height="12" fill="#F57C00" opacity=".75"/><rect x="1091" y="242" width="68" height="198" fill="#1d1a19"/><rect x="1101" y="255" width="9" height="12" fill="#F57C00" opacity=".75"/><rect x="1123" y="255" width="9" height="12" fill="#F57C00" opacity=".75"/><rect x="1101" y="307" width="9" height="12" fill="#F57C00" opacity=".75"/><rect x="1101" y="333" width="9" height="12" fill="#F57C00" opacity=".75"/><rect x="1101" y="359" width="9" height="12" fill="#F57C00" opacity=".75"/><rect x="1101" y="385" width="9" height="12" fill="#F57C00" opacity=".75"/><rect x="1123" y="385" width="9" height="12" fill="#F57C00" opacity=".75"/><rect x="1101" y="411" width="9" height="12" fill="#F57C00" opacity=".75"/><rect x="1165" y="344" width="91" height="96" fill="#1d1a19"/><rect x="1175" y="358" width="9" height="12" fill="#F57C00" opacity=".75"/><rect x="1197" y="358" width="9" height="12" fill="#F57C00" opacity=".75"/><rect x="1219" y="384" width="9" height="12" fill="#F57C00" opacity=".75"/><rect x="1241" y="384" width="9" height="12" fill="#F57C00" opacity=".75"/><rect x="1175" y="410" width="9" height="12" fill="#F57C00" opacity=".75"/><rect x="1219" y="410" width="9" height="12" fill="#F57C00" opacity=".75"/><rect x="1262" y="218" width="112" height="222" fill="#1d1a19"/><rect x="1272" y="232" width="9" height="12" fill="#F57C00" opacity=".75"/><rect x="1294" y="232" width="9" height="12" fill="#F57C00" opacity=".75"/><rect x="1338" y="232" width="9" height="12" fill="#F57C00" opacity=".75"/><rect x="1294" y="258" width="9" height="12" fill="#F57C00" opacity=".75"/><rect x="1316" y="258" width="9" height="12" fill="#F57C00" opacity=".75"/><rect x="1338" y="258" width="9" height="12" fill="#F57C00" opacity=".75"/><rect x="1316" y="284" width="9" height="12" fill="#F57C00" opacity=".75"/><rect x="1338" y="284" width="9" height="12" fill="#F57C00" opacity=".75"/><rect x="1272" y="310" width="9" height="12" fill="#F57C00" opacity=".75"/><rect x="1294" y="310" width="9" height="12" fill="#F57C00" opacity=".75"/><rect x="1338" y="310" width="9" height="12" fill="#F57C00" opacity=".75"/><rect x="1272" y="336" width="9" height="12" fill="#F57C00" opacity=".75"/><rect x="1294" y="336" width="9" height="12" fill="#F57C00" opacity=".75"/><rect x="1316" y="336" width="9" height="12" fill="#F57C00" opacity=".75"/><rect x="1338" y="336" width="9" height="12" fill="#F57C00" opacity=".75"/><rect x="1294" y="362" width="9" height="12" fill="#F57C00" opacity=".75"/><rect x="1316" y="362" width="9" height="12" fill="#F57C00" opacity=".75"/><rect x="1272" y="388" width="9" height="12" fill="#F57C00" opacity=".75"/><rect x="1294" y="388" width="9" height="12" fill="#F57C00" opacity=".75"/><rect x="1338" y="388" width="9" height="12" fill="#F57C00" opacity=".75"/><rect x="1294" y="414" width="9" height="12" fill="#F57C00" opacity=".75"/><rect x="0" y="440" width="1300" height="60" fill="#0f0f0f"/><path d="M-20,470 C200,430 320,500 520,462 S860,430 1010,468" stroke="#F57C00" stroke-width="5" stroke-dasharray="4 14" stroke-linecap="round" fill="none"/><g transform="translate(700,250) scale(1.3)"><rect x="-90" y="-46" width="180" height="150" rx="18" fill="#D32F2F"/><rect x="-90" y="-46" width="180" height="34" rx="18" fill="#B32424"/><g transform="translate(0,40) scale(0.9)" opacity="1"><path d="M0,-70 C10,-38 42,-26 42,10 C42,38 22,54 0,54 C-22,54 -42,38 -42,10 C-42,-8 -32,-18 -22,-34 C-20,-14 -8,-8 -2,-8 C-8,-30 -8,-52 0,-70 Z" fill="#F57C00"/><path d="M0,-14 C6,4 22,10 22,28 C22,42 12,50 0,50 C-12,50 -22,42 -22,28 C-22,20 -16,14 -12,6 C-10,14 -4,16 0,16 C-4,4 -4,-6 0,-14 Z" fill="#FFD27A"/></g></g><g transform="translate(1040,240) scale(1.25)"><path d="M0,-90 C-50,-90 -70,-52 -70,-24 C-70,26 0,84 0,84 C0,84 70,26 70,-24 C70,-52 50,-90 0,-90 Z" fill="#F8F9FA"/><circle cx="0" cy="-26" r="26" fill="#D32F2F"/></g></svg>