<svg xmlns="http://www.w3.org/2000/svg" viewBox="0 0 600 600" width="600" height="600"><defs>
<linearGradient id="b43" x1="0" y1="0" x2="0" y2="1"><stop offset="0" stop-color="#2b2725"/><stop offset="1" stop-color="#151515"/></linearGradient>
<radialGradient id="g44" cx="50%" cy="108%" r="85%"><stop offset="0" stop-color="#D32F2F" stop-opacity=".62"/><stop offset=".5" stop-color="#D32F2F" stop-opacity=".2"/><stop offset="1" stop-color="#D32F2F" stop-opacity="0"/></radialGradient>
<pattern id="p45" width="26" height="26" patternUnits="userSpaceOnUse" patternTransform="rotate(45)"><line x1="0" y1="0" x2="0" y2="26" stroke="#fff" stroke-opacity=".04" stroke-width="2"/></pattern>
</defs>
<rect width="600" height="600" fill="url(#b43)"/><rect width="600" height="600" fill="url(#p45)"/><rect width="600" height="600" fill="url(#g44)"/><g transform="translate(300 330) scale(1.6) translate(-300 -330)"><path d="M175,346 L425,346 C425,461 370,481 300,481 C230,481 175,461 175,346 Z" fill="#b5532b"/><ellipse cx="300" cy="346" rx="125" ry="30" fill="#8c3d1e"/><ellipse cx="300" cy="342" rx="115" ry="25" fill="#3a2a20"/><circle cx="253" cy="350" r="7" fill="#d9342b"/><circle cx="280" cy="333" r="12" fill="#3f9a3a"/><circle cx="354" cy="356" r="11" fill="#5bb04a"/><circle cx="296" cy="336" r="13" fill="#3f9a3a"/><circle cx="273" cy="351" r="7" fill="#d9342b"/><circle cx="216" cy="345" r="6" fill="#5bb04a"/><circle cx="271" cy="323" r="12" fill="#d9342b"/><circle cx="310" cy="357" r="12" fill="#3f9a3a"/><circle cx="312" cy="320" r="8" fill="#3f9a3a"/><circle cx="312" cy="336" r="12" fill="#d9342b"/><circle cx="346" cy="351" r="7" fill="#3f9a3a"/><circle cx="306" cy="369" r="13" fill="#d9342b"/><circle cx="375" cy="347" r="12" fill="#d9342b"/><circle cx="301" cy="348" r="7" fill="#d9342b"/><circle cx="351" cy="337" r="9" fill="#5bb04a"/><circle cx="346" cy="338" r="7" fill="#3f9a3a"/><circle cx="307" cy="323" r="7" fill="#d9342b"/><circle cx="234" cy="329" r="8" fill="#d9342b"/><circle cx="267" cy="323" r="8" fill="#f0efe6"/><circle cx="388" cy="345" r="12" fill="#d9342b"/><circle cx="232" cy="361" r="10" fill="#d9342b"/><circle cx="346" cy="350" r="10" fill="#f0efe6"/><circle cx="236" cy="337" r="7" fill="#e9553c"/><circle cx="335" cy="336" r="9" fill="#d9342b"/><circle cx="363" cy="344" r="9" fill="#d9342b"/><circle cx="299" cy="346" r="7" fill="#d9342b"/><circle cx="258" cy="351" r="8" fill="#d9342b"/><circle cx="287" cy="365" r="6" fill="#d9342b"/><circle cx="315" cy="322" r="8" fill="#3f9a3a"/><circle cx="311" cy="326" r="9" fill="#d9342b"/><circle cx="310" cy="373" r="10" fill="#3f9a3a"/><circle cx="360" cy="341" r="11" fill="#d9342b"/><circle cx="338" cy="368" r="6" fill="#e9553c"/><circle cx="372" cy="337" r="13" fill="#e9553c"/><circle cx="365" cy="344" r="6" fill="#d9342b"/><circle cx="227" cy="353" r="10" fill="#e9553c"/><circle cx="346" cy="343" r="9" fill="#d9342b"/><circle cx="285" cy="373" r="10" fill="#f0efe6"/><circle cx="294" cy="341" r="7" fill="#3f9a3a"/><circle cx="229" cy="337" r="12" fill="#5bb04a"/><circle cx="335" cy="366" r="12" fill="#5bb04a"/><circle cx="278" cy="346" r="8" fill="#d9342b"/><circle cx="353" cy="364" r="7" fill="#d9342b"/><circle cx="320" cy="321" r="7" fill="#d9342b"/><circle cx="240" cy="351" r="7" fill="#3f9a3a"/><circle cx="239" cy="340" r="10" fill="#e9553c"/><circle cx="310" cy="345" r="12" fill="#5bb04a"/><circle cx="243" cy="341" r="10" fill="#5bb04a"/><circle cx="323" cy="321" r="10" fill="#5bb04a"/><circle cx="277" cy="368" r="7" fill="#f0efe6"/><circle cx="347" cy="357" r="9" fill="#d9342b"/><circle cx="290" cy="342" r="6" fill="#5bb04a"/><circle cx="302" cy="364" r="12" fill="#e9553c"/><circle cx="292" cy="325" r="6" fill="#d9342b"/><circle cx="246" cy="334" r="9" fill="#f0efe6"/><circle cx="283" cy="343" r="10" fill="#d9342b"/><circle cx="307" cy="351" r="10" fill="#e9553c"/><circle cx="246" cy="341" r="11" fill="#f0efe6"/><circle cx="262" cy="367" r="9" fill="#d9342b"/><circle cx="273" cy="349" r="13" fill="#3f9a3a"/><circle cx="311" cy="340" r="11" fill="#e9553c"/><circle cx="275" cy="348" r="7" fill="#d9342b"/><circle cx="318" cy="348" r="13" fill="#f0efe6"/><circle cx="249" cy="363" r="10" fill="#3f9a3a"/><circle cx="325" cy="371" r="8" fill="#d9342b"/><circle cx="298" cy="365" r="6" fill="#d9342b"/><circle cx="299" cy="367" r="10" fill="#d9342b"/><circle cx="228" cy="359" r="12" fill="#3f9a3a"/><circle cx="272" cy="339" r="11" fill="#d9342b"/><circle cx="308" cy="349" r="13" fill="#d9342b"/></g></svg>