<svg xmlns="http://www.w3.org/2000/svg" viewBox="0 0 600 600" width="600" height="600"><defs>
<linearGradient id="b34" x1="0" y1="0" x2="0" y2="1"><stop offset="0" stop-color="#2b2725"/><stop offset="1" stop-color="#151515"/></linearGradient>
<radialGradient id="g35" cx="50%" cy="108%" r="85%"><stop offset="0" stop-color="#F57C00" stop-opacity=".62"/><stop offset=".5" stop-color="#D32F2F" stop-opacity=".2"/><stop offset="1" stop-color="#F57C00" stop-opacity="0"/></radialGradient>
<pattern id="p36" width="26" height="26" patternUnits="userSpaceOnUse" patternTransform="rotate(45)"><line x1="0" y1="0" x2="0" y2="26" stroke="#fff" stroke-opacity=".04" stroke-width="2"/></pattern>
</defs>
<rect width="600" height="600" fill="url(#b34)"/><rect width="600" height="600" fill="url(#p36)"/><rect width="600" height="600" fill="url(#g35)"/><rect x="58" y="169" width="500" height="340" rx="34" fill="#000" opacity=".4"/><rect x="50" y="155" width="500" height="340" rx="34" fill="#4f3323"/><rect x="59" y="164" width="482" height="322" rx="27" fill="#7d5236"/><path d="M74,181 C200,180 375,182 526,181" stroke="#3d2517" stroke-opacity=".35" stroke-width="3" fill="none" stroke-linecap="round"/><path d="M74,229 C200,235 375,229 526,229" stroke="#3d2517" stroke-opacity=".35" stroke-width="3" fill="none" stroke-linecap="round"/><path d="M74,277 C200,277 375,278 526,277" stroke="#3d2517" stroke-opacity=".35" stroke-width="3" fill="none" stroke-linecap="round"/><path d="M74,325 C200,321 375,325 526,325" stroke="#3d2517" stroke-opacity=".35" stroke-width="3" fill="none" stroke-linecap="round"/><path d="M74,373 C200,375 375,377 526,373" stroke="#3d2517" stroke-opacity=".35" stroke-width="3" fill="none" stroke-linecap="round"/><path d="M74,421 C200,415 375,418 526,421" stroke="#3d2517" stroke-opacity=".35" stroke-width="3" fill="none" stroke-linecap="round"/><path d="M74,469 C200,463 375,473 526,469" stroke="#3d2517" stroke-opacity=".35" stroke-width="3" fill="none" stroke-linecap="round"/><g transform="translate(215,290) rotate(6) scale(1.2)">
<line x1="34" y1="26" x2="98" y2="66" stroke="#f4e7d4" stroke-width="18" stroke-linecap="round"/>
<circle cx="106" cy="60" r="13" fill="#f4e7d4"/><circle cx="108" cy="80" r="12" fill="#f4e7d4"/>
<ellipse cx="0" cy="0" rx="64" ry="48" fill="#8d4a14" transform="rotate(-28)"/>
<ellipse cx="-4" cy="-4" rx="58" ry="42" fill="#c07523" transform="rotate(-28)"/>
<ellipse cx="-18" cy="-16" rx="36" ry="20" fill="#e39a3f" opacity=".85" transform="rotate(-28)"/>
<g stroke="#6b3509" stroke-width="6" stroke-linecap="round" opacity=".45"><line x1="-30" y1="-30" x2="-2" y2="22"/><line x1="0" y1="-38" x2="28" y2="12"/></g></g><g transform="translate(365,290) rotate(-6) scale(1.2)">
<line x1="34" y1="26" x2="98" y2="66" stroke="#f4e7d4" stroke-width="18" stroke-linecap="round"/>
<circle cx="106" cy="60" r="13" fill="#f4e7d4"/><circle cx="108" cy="80" r="12" fill="#f4e7d4"/>
<ellipse cx="0" cy="0" rx="64" ry="48" fill="#8d4a14" transform="rotate(-28)"/>
<ellipse cx="-4" cy="-4" rx="58" ry="42" fill="#c07523" transform="rotate(-28)"/>
<ellipse cx="-18" cy="-16" rx="36" ry="20" fill="#e39a3f" opacity=".85" transform="rotate(-28)"/>
<g stroke="#6b3509" stroke-width="6" stroke-linecap="round" opacity=".45"><line x1="-30" y1="-30" x2="-2" y2="22"/><line x1="0" y1="-38" x2="28" y2="12"/></g></g><g transform="translate(290,420) rotate(0) scale(1.1)">
<line x1="34" y1="26" x2="98" y2="66" stroke="#f4e7d4" stroke-width="18" stroke-linecap="round"/>
<circle cx="106" cy="60" r="13" fill="#f4e7d4"/><circle cx="108" cy="80" r="12" fill="#f4e7d4"/>
<ellipse cx="0" cy="0" rx="64" ry="48" fill="#8d4a14" transform="rotate(-28)"/>
<ellipse cx="-4" cy="-4" rx="58" ry="42" fill="#c07523" transform="rotate(-28)"/>
<ellipse cx="-18" cy="-16" rx="36" ry="20" fill="#e39a3f" opacity=".85" transform="rotate(-28)"/>
<g stroke="#6b3509" stroke-width="6" stroke-linecap="round" opacity=".45"><line x1="-30" y1="-30" x2="-2" y2="22"/><line x1="0" y1="-38" x2="28" y2="12"/></g></g></svg>