<svg xmlns="http://www.w3.org/2000/svg" viewBox="0 0 800 500" width="800" height="500"><defs>
<linearGradient id="b65" x1="0" y1="0" x2="0" y2="1"><stop offset="0" stop-color="#2b2725"/><stop offset="1" stop-color="#151515"/></linearGradient>
<radialGradient id="g66" cx="50%" cy="108%" r="85%"><stop offset="0" stop-color="#F57C00" stop-opacity=".62"/><stop offset=".5" stop-color="#D32F2F" stop-opacity=".2"/><stop offset="1" stop-color="#F57C00" stop-opacity="0"/></radialGradient>
<pattern id="p67" width="26" height="26" patternUnits="userSpaceOnUse" patternTransform="rotate(45)"><line x1="0" y1="0" x2="0" y2="26" stroke="#fff" stroke-opacity=".04" stroke-width="2"/></pattern>
</defs>
<rect width="800" height="500" fill="url(#b65)"/><rect width="800" height="500" fill="url(#p67)"/><rect width="800" height="500" fill="url(#g66)"/><rect x="53" y="129" width="470" height="330" rx="34" fill="#000" opacity=".4"/><rect x="45" y="115" width="470" height="330" rx="34" fill="#4f3323"/><rect x="54" y="124" width="452" height="312" rx="27" fill="#7d5236"/><path d="M69,141 C186,140 350,142 491,141" stroke="#3d2517" stroke-opacity=".35" stroke-width="3" fill="none" stroke-linecap="round"/><path d="M69,187 C186,193 350,187 491,187" stroke="#3d2517" stroke-opacity=".35" stroke-width="3" fill="none" stroke-linecap="round"/><path d="M69,234 C186,234 350,235 491,234" stroke="#3d2517" stroke-opacity=".35" stroke-width="3" fill="none" stroke-linecap="round"/><path d="M69,280 C186,276 350,280 491,280" stroke="#3d2517" stroke-opacity=".35" stroke-width="3" fill="none" stroke-linecap="round"/><path d="M69,326 C186,328 350,330 491,326" stroke="#3d2517" stroke-opacity=".35" stroke-width="3" fill="none" stroke-linecap="round"/><path d="M69,373 C186,367 350,370 491,373" stroke="#3d2517" stroke-opacity=".35" stroke-width="3" fill="none" stroke-linecap="round"/><path d="M69,419 C186,413 350,423 491,419" stroke="#3d2517" stroke-opacity=".35" stroke-width="3" fill="none" stroke-linecap="round"/><g transform="translate(280,250) rotate(-4) scale(1.1)">
<defs><linearGradient id="g63" x1="0" y1="0" x2="0" y2="1"><stop offset="0" stop-color="#94401f"/><stop offset="1" stop-color="#5d2110"/></linearGradient></defs>
<clipPath id="c62"><rect x="-148" y="-80" width="296" height="150" rx="28"/></clipPath>
<circle cx="-108" cy="90" r="11" fill="#efdcc4"/><circle cx="-65" cy="90" r="11" fill="#efdcc4"/><circle cx="-22" cy="90" r="11" fill="#efdcc4"/><circle cx="21" cy="90" r="11" fill="#efdcc4"/><circle cx="64" cy="90" r="11" fill="#efdcc4"/><circle cx="107" cy="90" r="11" fill="#efdcc4"/><rect x="-148" y="-80" width="296" height="150" rx="28" fill="url(#g63)"/>
<g clip-path="url(#c62)"><rect x="-115" y="-78" width="14" height="170" rx="7" fill="#efdcc4"/><rect x="-72" y="-78" width="14" height="170" rx="7" fill="#efdcc4"/><rect x="-29" y="-78" width="14" height="170" rx="7" fill="#efdcc4"/><rect x="14" y="-78" width="14" height="170" rx="7" fill="#efdcc4"/><rect x="57" y="-78" width="14" height="170" rx="7" fill="#efdcc4"/><rect x="100" y="-78" width="14" height="170" rx="7" fill="#efdcc4"/><g opacity=".92" fill="url(#g63)"><rect x="-140" y="-70" width="280" height="30"/><rect x="-140" y="-8" width="280" height="30"/><rect x="-140" y="46" width="280" height="30"/></g></g>
<g stroke="#2b0d05" stroke-width="7" stroke-linecap="round" fill="none" opacity=".55"><path d="M-120,-40 q30,-18 60,0 t60,0 t60,0 t60,0"/><path d="M-120,14 q30,-18 60,0 t60,0 t60,0 t60,0"/></g>
<rect x="-148" y="-80" width="296" height="150" rx="28" fill="none" stroke="#f0a15a" stroke-opacity=".35" stroke-width="4"/></g><path d="M440,380 L740,380 C740,516 674,540 590,540 C506,540 440,516 440,380 Z" fill="#8a2f22"/><ellipse cx="590" cy="380" rx="150" ry="36" fill="#6a2118"/><ellipse cx="590" cy="376" rx="140" ry="30" fill="#3a2a20"/><g transform="translate(482,332) rotate(-10)"><rect x="-16" y="-64" width="34" height="132" rx="14" fill="#b9791c"/><rect x="-12" y="-62" width="26" height="126" rx="11" fill="#eab64a"/><rect x="-9" y="-56" width="8" height="90" rx="4" fill="#fbdc8a" opacity=".8"/></g><g transform="translate(513,335) rotate(-35)"><rect x="-16" y="-64" width="34" height="132" rx="14" fill="#b9791c"/><rect x="-12" y="-62" width="26" height="126" rx="11" fill="#eab64a"/><rect x="-9" y="-56" width="8" height="90" rx="4" fill="#fbdc8a" opacity=".8"/></g><g transform="translate(534,343) rotate(-19)"><rect x="-16" y="-64" width="34" height="132" rx="14" fill="#b9791c"/><rect x="-12" y="-62" width="26" height="126" rx="11" fill="#eab64a"/><rect x="-9" y="-56" width="8" height="90" rx="4" fill="#fbdc8a" opacity=".8"/></g><g transform="translate(563,350) rotate(-2)"><rect x="-16" y="-64" width="34" height="132" rx="14" fill="#b9791c"/><rect x="-12" y="-62" width="26" height="126" rx="11" fill="#eab64a"/><rect x="-9" y="-56" width="8" height="90" rx="4" fill="#fbdc8a" opacity=".8"/></g><g transform="translate(596,329) rotate(11)"><rect x="-16" y="-64" width="34" height="132" rx="14" fill="#b9791c"/><rect x="-12" y="-62" width="26" height="126" rx="11" fill="#eab64a"/><rect x="-9" y="-56" width="8" height="90" rx="4" fill="#fbdc8a" opacity=".8"/></g><g transform="translate(617,335) rotate(29)"><rect x="-16" y="-64" width="34" height="132" rx="14" fill="#b9791c"/><rect x="-12" y="-62" width="26" height="126" rx="11" fill="#eab64a"/><rect x="-9" y="-56" width="8" height="90" rx="4" fill="#fbdc8a" opacity=".8"/></g><g transform="translate(647,340) rotate(14)"><rect x="-16" y="-64" width="34" height="132" rx="14" fill="#b9791c"/><rect x="-12" y="-62" width="26" height="126" rx="11" fill="#eab64a"/><rect x="-9" y="-56" width="8" height="90" rx="4" fill="#fbdc8a" opacity=".8"/></g><g transform="translate(670,340) rotate(7)"><rect x="-16" y="-64" width="34" height="132" rx="14" fill="#b9791c"/><rect x="-12" y="-62" width="26" height="126" rx="11" fill="#eab64a"/><rect x="-9" y="-56" width="8" height="90" rx="4" fill="#fbdc8a" opacity=".8"/></g><g transform="translate(699,311) rotate(29)"><rect x="-16" y="-64" width="34" height="132" rx="14" fill="#b9791c"/><rect x="-12" y="-62" width="26" height="126" rx="11" fill="#eab64a"/><rect x="-9" y="-56" width="8" height="90" rx="4" fill="#fbdc8a" opacity=".8"/></g><g transform="translate(700,260) scale(0.85)"><defs><linearGradient id="g64" x1="0" y1="0" x2="1" y2="0"><stop offset="0" stop-color="#3a0f0a"/><stop offset=".35" stop-color="#5c1a12"/><stop offset="1" stop-color="#2d0b07"/></linearGradient></defs>
<path d="M-34,-150 L34,-150 L34,-112 C34,-84 62,-72 62,-30 L62,130 C62,148 48,160 30,160 L-30,160 C-48,160 -62,148 -62,130 L-62,-30 C-62,-72 -34,-84 -34,-112 Z" fill="url(#g64)"/>
<rect x="-36" y="-166" width="72" height="24" rx="8" fill="#D32F2F"/><rect x="-62" y="-6" width="124" height="82" fill="#F8F9FA"/>
<path d="M0,6 C10,22 22,26 22,44 C22,60 12,68 0,68 C-12,68 -22,60 -22,44 C-22,36 -18,32 -14,26 C-14,34 -10,36 -6,36 C-8,28 -6,16 0,6 Z" fill="#F57C00"/>
<rect x="-46" y="-40" width="10" height="150" rx="5" fill="#fff" opacity=".18"/></g></svg>